# xmcd CD database file
#
# Track frame offsets:
#	150
#	13270
#	28070
#	42590
#	56285
#	68398
#	81776
#	95561
#	109596
#	124039
#	137339
#	151157
#	164300
#	177209
#	192727
#	206527
#
# Disc length: 2943 seconds
#
# Revision: 0
# Processed by: cddbd v1.5.1PL2 Copyright (c) Steve Scherf et al.
# Submitted via: CDex 1.51
#
DISCID=cf0b7d10
DTITLE=Billy Holiday - Legends [CD1]
DYEAR=1900
DGENRE=Jazz
TTITLE0=A Fine Romance
TTITLE1=Can't Help Lovin' Dat Man
TTITLE2=Easy To Love
TTITLE3=Foolin' Myself
TTITLE4=He's Funny That Way
TTITLE5=I've got My Love To Keep Me Warm
TTITLE6=My Man
TTITLE7=The Man I Love
TTITLE8=If You Were Mine
TTITLE9=I Mus Have That Man
TTITLE10=All Of Me
TTITLE11=You Let Me Down
TTITLE12=He in't Got Rhythm
TTITLE13=I'm A Fool To Want You
TTITLE14=I Wished On The Moon
TTITLE15=My Last Affair
EXTD=
EXTT0=
EXTT1=
EXTT2=
EXTT3=
EXTT4=
EXTT5=
EXTT6=
EXTT7=
EXTT8=
EXTT9=
EXTT10=
EXTT11=
EXTT12=
EXTT13=
EXTT14=
EXTT15=
PLAYORDER=
